<?xml version="1.0" encoding="UTF-8"?>
<svg width="393px" height="327px" viewBox="0 0 393 327" version="1.1" xmlns="http://www.w3.org/2000/svg" xmlns:xlink="http://www.w3.org/1999/xlink">
    <g id="Page-1" stroke="none" stroke-width="1" fill="none" fill-rule="evenodd">
        <g id="Artboard" transform="translate(0.000000, -473.000000)" stroke-width="3" stroke="#FFFFFF">
        <g id="mountain" transform="translate(0.000000, 475.000000)">
            <polygon id="Path-3" points="0.5 0.5 92.5 10.5 97 86 217 86 237 145.5 313.5 155.5 313.5 233.5 391.5 266 391.5 324.5 0.5 324.5"></polygon>
            <polyline id="Path-4" points="3.5 2 33.5 46.5 91 12.5 47.75 109 99 87 129 148.5 214.5 89 200.5 135.5 240 148.5 245.5 189 312 158 248 269 314.5 233.5 316.972176 238.921438 343 296 392 266.5 298.5 323 298.5 271.5"></polyline>
            <polyline id="Path-5" points="35 47.5 45.5 109.5 1.5 140 67 173.5 100 87.5 129.5 149.5 202 136 191.5 189 246 189 246 270.5 300 272.5"></polyline>
            <polyline id="Path-6" points="68.5 175.5 131 149 191 189 245.5 271 299.5 323.5 205.5 301.5"></polyline>
            <polygon id="Path-7" points="69 175 2.5 224.5 69 247.5"></polygon>
            <polyline id="Path-8" points="133.5 150 71 245.5 193 188.5 206.5 299.5 152 245.5 107 319 4 224"></polyline>
            <polyline id="Path-9" points="71 249 152.5 243.5 193.5 189"></polyline>
            <polyline id="Path-10" points="206 323 206 301.5 107.5 319.5"></polyline>
            <polyline id="Path-11" points="71.5 246 64 275.5 4 323"></polyline>
            <path d="M33,47 L2,56" id="Path-2"></path>
            <path d="M314.5,236 L298,273" id="Path-12"></path>
        </g>
        </g>
    </g>
</svg>
