<?xml version="1.0" encoding="UTF-8"?>
<svg width="39px" height="45px" viewBox="0 0 39 45" version="1.1" xmlns="http://www.w3.org/2000/svg" xmlns:xlink="http://www.w3.org/1999/xlink">
    <!-- Generator: Sketch 46.2 (44496) - http://www.bohemiancoding.com/sketch -->
    <title>phone-receiver</title>
    <desc>Created with Sketch.</desc>
    <defs></defs>
    <g id="Page-1" stroke="none" stroke-width="1" fill="none" fill-rule="evenodd">
        <g id="Artboard" transform="translate(-754.000000, -460.000000)" fill-rule="nonzero" fill="#FFFFFF">
            <g id="Group-2" transform="translate(750.000000, 459.000000)">
                <g id="phone-receiver" transform="translate(23.500000, 23.500000) rotate(7.000000) translate(-23.500000, -23.500000) translate(3.000000, 3.000000)">
                    <path d="M40.9804574,32.3569355 C41.067336,33.0229658 40.8645011,33.6020608 40.3728037,34.0942206 L34.6000932,39.8270487 C34.3396701,40.1165962 33.9997443,40.3629245 33.5801739,40.5653948 C33.1606035,40.7681491 32.7483379,40.8984455 32.3433773,40.956284 C32.3144414,40.956284 32.2274209,40.9637356 32.0826705,40.978213 C31.9382039,40.9926194 31.7501206,41 31.5186334,41 C30.9687096,41 30.07886,40.9058971 28.8490846,40.7176202 C27.6193092,40.5293433 26.1147137,40.0659963 24.3352982,39.3277921 C22.5554571,38.5894459 20.5372495,37.4817847 18.2803209,36.0052343 C16.0233922,34.5287548 13.6216422,32.5017802 11.0752837,29.9247363 C9.04977123,27.9268584 7.37148948,26.0158448 6.04043843,24.1917664 C4.70938739,22.367546 3.63875937,20.6809317 2.82855439,19.1318525 C2.01827849,17.5827732 1.41062475,16.1784678 1.00552226,14.918936 C0.600419765,13.6594043 0.325528788,12.5736011 0.180849327,11.6615264 C0.0361698653,10.7494517 -0.0217019192,10.0328216 0.00723397307,9.51163608 C0.0361698653,8.99045054 0.0506378115,8.70090302 0.0506378115,8.64299351 C0.108509596,8.23762698 0.238721111,7.82502177 0.441272357,7.40517786 C0.643823603,6.98533395 0.889778687,6.64511562 1.17913761,6.38452285 L6.95184812,0.608049795 C7.35695061,0.202683265 7.81992488,0 8.34077095,0 C8.71693754,0 9.04970031,0.108580321 9.33905923,0.325740962 C9.62841815,0.542901603 9.87437324,0.81073306 10.0769245,1.12923533 L14.7211352,9.94595736 C14.9815582,10.4092334 15.053898,10.9159416 14.9381544,11.4660818 C14.8224108,12.0162221 14.5764557,12.4794982 14.2002891,12.85591 L12.073501,14.9840842 C12.0156293,15.0419937 11.9649915,15.1360967 11.9215876,15.2663931 C11.8781838,15.3966895 11.8564819,15.5052698 11.8564819,15.592134 C11.9722254,16.2001838 12.2326485,16.8950979 12.6377509,17.6768762 C12.9849817,18.3717902 13.5202957,19.2187167 14.243693,20.2176557 C14.9670903,21.2165946 15.9943144,22.3674751 17.3253655,23.6704389 C18.6274806,25.0024994 19.7849163,26.0374899 20.7976726,26.775978 C21.810216,27.5140403 22.6568746,28.0571548 23.336868,28.4046119 C24.0168615,28.7520689 24.5377076,28.9619908 24.8993353,29.0341648 L25.4417414,29.1428161 C25.4996132,29.1428161 25.5938676,29.1210291 25.7239373,29.0776679 C25.8541488,29.0341648 25.9481905,28.983565 26.0061332,28.9255845 L28.480081,26.4065211 C29.0012108,25.943316 29.6085808,25.711678 30.3031132,25.711678 C30.7951652,25.711678 31.185587,25.7984713 31.4749459,25.9722707 L31.5182788,25.9722707 L39.8951487,30.9235334 C40.5030152,31.300229 40.8646429,31.7778405 40.9804574,32.3569355 Z" id="Shape"></path>
                </g>
            </g>
        </g>
    </g>
</svg>