<?xml version="1.0" encoding="UTF-8"?>
<svg width="455px" height="67px" viewBox="0 0 455 67" version="1.1" xmlns="http://www.w3.org/2000/svg" xmlns:xlink="http://www.w3.org/1999/xlink">
    <!-- Generator: Sketch 46.2 (44496) - http://www.bohemiancoding.com/sketch -->
    <title>ThreadStory</title>
    <desc>Created with Sketch.</desc>
    <defs></defs>
    <g id="Page-1" stroke="none" stroke-width="1" fill="none" fill-rule="evenodd">
        <g id="Artboard" transform="translate(-492.000000, -190.000000)" fill="#FFFFFF">
            <path d="M532.448,190.413 L532.448,199.024 L518.07,199.024 L518.07,242 L507.089,242 L507.089,199.024 L492.632,199.024 L492.632,190.413 L532.448,190.413 Z M562.073,200.367 C564.495679,200.367 566.575991,200.775163 568.314,201.5915 C570.052009,202.407837 571.487161,203.526993 572.6195,204.949 C573.751839,206.371007 574.581331,208.056324 575.108,210.005 C575.634669,211.953676 575.898,214.060322 575.898,216.325 L575.898,242 L565.312,242 L565.312,219.88 C565.312,215.982647 564.785339,213.112343 563.732,211.269 C562.678661,209.425657 560.86168,208.504 558.281,208.504 C555.173651,208.504 552.869508,209.79432 551.3685,212.375 C549.867492,214.95568 549.117,218.352646 549.117,222.566 L549.117,242 L538.531,242 L538.531,191.519 L548.564,191.519 L548.564,206.845 C549.090669,206.265664 549.669997,205.59417 550.302,204.8305 C550.934003,204.06683 551.737162,203.355837 552.7115,202.6975 C553.685838,202.039163 554.923492,201.486169 556.4245,201.0385 C557.925508,200.590831 559.808322,200.367 562.073,200.367 Z M611.843,211.506 C610.631661,211.242665 609.538838,211.097833 608.5645,211.0715 C607.590162,211.045167 606.681671,211.058333 605.839,211.111 C604.153658,211.216334 602.771172,211.584997 601.6915,212.217 C600.611828,212.849003 599.782336,213.678495 599.203,214.7055 C598.623664,215.732505 598.228668,216.89116 598.018,218.1815 C597.807332,219.47184 597.702,220.80166 597.702,222.171 L597.702,242 L587.037,242 L587.037,201.71 L594.858,201.71 L596.517,210.558 L596.7145,209.6495 C596.846167,209.04383 597.109498,208.306504 597.5045,207.4375 C597.899502,206.568496 598.465663,205.646838 599.203,204.6725 C599.940337,203.698162 600.875161,202.842337 602.0075,202.105 C603.139839,201.367663 604.509159,200.841002 606.1155,200.525 C607.721841,200.208998 609.630989,200.261665 611.843,200.683 L611.843,211.506 Z M638.071,242.869 C633.699645,242.869 630.092014,242.289672 627.248,241.131 C624.403986,239.972328 622.126175,238.418676 620.4145,236.47 C618.702825,234.521324 617.50467,232.269846 616.82,229.7155 C616.13533,227.161154 615.793,224.462014 615.793,221.618 C615.793,219.089987 616.13533,216.562013 616.82,214.034 C617.50467,211.505987 618.597492,209.228177 620.0985,207.2005 C621.599508,205.172823 623.561321,203.527006 625.984,202.263 C628.406679,200.998994 631.355983,200.367 634.832,200.367 C638.518685,200.367 641.586488,200.998994 644.0355,202.263 C646.484512,203.527006 648.446326,205.172823 649.921,207.2005 C651.395674,209.228177 652.43583,211.505987 653.0415,214.034 C653.64717,216.562013 653.95,219.089987 653.95,221.618 L653.95,225.173 L625.984,225.173 C625.984,228.017014 626.997823,230.360657 629.0255,232.204 C631.053177,234.047343 633.831316,234.969 637.36,234.969 C639.361343,234.969 641.204658,234.758335 642.89,234.337 C644.575342,233.915665 646.023661,233.441669 647.235,232.915 C648.60434,232.335664 649.868328,231.651004 651.027,230.861 L651.027,239.709 C651.027,239.761667 650.68467,239.945998 650,240.262 C649.31533,240.578002 648.393672,240.933498 647.235,241.3285 C646.076328,241.723502 644.707008,242.078998 643.127,242.395 C641.546992,242.711002 639.861676,242.869 638.071,242.869 Z M643.917,217.668 C643.917,216.772662 643.798501,215.785172 643.5615,214.7055 C643.324499,213.625828 642.876837,212.612005 642.2185,211.664 C641.560163,210.715995 640.638506,209.926003 639.4535,209.294 C638.268494,208.661997 636.728009,208.346 634.832,208.346 C633.199325,208.346 631.816839,208.661997 630.6845,209.294 C629.552161,209.926003 628.64367,210.715995 627.959,211.664 C627.27433,212.612005 626.774002,213.625828 626.458,214.7055 C626.141998,215.785172 625.984,216.772662 625.984,217.668 L643.917,217.668 Z M677.808,200.367 C679.546009,200.367 681.415657,200.643497 683.417,201.1965 C685.418343,201.749503 687.287991,202.644827 689.026,203.8825 C690.764009,205.120173 692.185994,206.713324 693.292,208.662 C694.398006,210.610676 694.924667,212.980653 694.872,215.772 L694.872,242 L687.13,242 L686.893,241.052 C686.734999,240.419997 686.563834,239.709004 686.3795,238.919 C686.195166,238.128996 686.024001,237.43117 685.866,236.8255 C685.707999,236.21983 685.629,235.943333 685.629,235.996 C684.891663,237.312673 683.917339,238.471328 682.706,239.472 C681.652661,240.367338 680.296508,241.15733 678.6375,241.842 C676.978492,242.52667 674.937679,242.869 672.515,242.869 C670.829658,242.869 669.170675,242.618836 667.538,242.1185 C665.905325,241.618164 664.44384,240.880838 663.1535,239.9065 C661.86316,238.932162 660.809837,237.707674 659.9935,236.233 C659.177163,234.758326 658.742667,233.046676 658.69,231.098 C658.584666,229.04399 658.861163,227.213841 659.5195,225.6075 C660.177837,224.001159 661.125827,222.618672 662.3635,221.46 C663.601173,220.301328 665.088991,219.366504 666.827,218.6555 C668.565009,217.944496 670.46099,217.457335 672.515,217.194 C674.463676,216.930665 676.596655,216.799 678.914,216.799 C681.231345,216.799 683.311657,216.851666 685.155,216.957 L685.155,215.693 C685.155,213.428322 684.654672,211.729839 683.654,210.5975 C682.653328,209.465161 681.402508,208.727835 679.9015,208.3855 C678.400492,208.043165 676.754676,208.003665 674.964,208.267 C673.173324,208.530335 671.461675,208.912164 669.829,209.4125 C668.196325,209.912836 666.761173,210.439497 665.5235,210.9925 C664.285827,211.545503 663.509002,211.953665 663.193,212.217 L663.193,204.238 C663.245667,204.185333 663.719662,203.961502 664.615,203.5665 C665.510338,203.171498 666.64266,202.737002 668.012,202.263 C669.38134,201.788998 670.921825,201.354502 672.6335,200.9595 C674.345175,200.564498 676.069991,200.367 677.808,200.367 Z M682.864,231.73 C683.759338,230.571328 684.351832,229.281007 684.6415,227.859 C684.931168,226.436993 685.076,224.936008 685.076,223.356 L680.494,223.356 C679.282661,223.356 677.99234,223.434999 676.623,223.593 C675.25366,223.751001 673.989672,224.066998 672.831,224.541 C671.672328,225.015002 670.698004,225.712829 669.908,226.6345 C669.117996,227.556171 668.723,228.806992 668.723,230.387 C668.723,232.125009 669.36816,233.388996 670.6585,234.179 C671.94884,234.969004 673.541991,235.364 675.438,235.364 C677.070675,235.364 678.505827,235.034837 679.7435,234.3765 C680.981173,233.718163 682.021329,232.836006 682.864,231.73 Z M719.125,200.367 C721.126343,200.367 722.903826,200.696163 724.4575,201.3545 C726.011174,202.012837 727.314661,202.710663 728.368,203.448 C729.579339,204.396005 730.632662,205.422994 731.528,206.529 L731.528,191.519 L742.114,191.519 L742.114,242 L733.898,242 L731.844,236.549 C731.053996,237.707672 730.053339,238.760995 728.842,239.709 C727.788661,240.499004 726.458841,241.223163 724.8525,241.8815 C723.246159,242.539837 721.337011,242.869 719.125,242.869 C716.017651,242.869 713.384344,242.302839 711.225,241.1705 C709.065656,240.038161 707.314507,238.524009 705.9715,236.628 C704.628493,234.731991 703.65417,232.506846 703.0485,229.9525 C702.44283,227.398154 702.14,224.699014 702.14,221.855 C702.14,219.010986 702.44283,216.29868 703.0485,213.718 C703.65417,211.13732 704.628493,208.85951 705.9715,206.8845 C707.314507,204.90949 709.065656,203.329506 711.225,202.1445 C713.384344,200.959494 716.017651,200.367 719.125,200.367 Z M722.443,234.574 C724.971013,234.574 727.117158,233.54701 728.8815,231.493 C730.645842,229.43899 731.528,226.226355 731.528,221.855 C731.528,217.536312 730.645842,214.244678 728.8815,211.98 C727.117158,209.715322 724.971013,208.583 722.443,208.583 C721.178994,208.583 719.994006,208.872664 718.888,209.452 C717.781994,210.031336 716.820837,210.873994 716.0045,211.98 C715.188163,213.086006 714.529836,214.468492 714.0295,216.1275 C713.529164,217.786508 713.279,219.695656 713.279,221.855 C713.279,224.014344 713.529164,225.897159 714.0295,227.5035 C714.529836,229.109841 715.188163,230.439661 716.0045,231.493 C716.820837,232.546339 717.781994,233.323164 718.888,233.8235 C719.994006,234.323836 721.178994,234.574 722.443,234.574 Z M782.878,205.028 C780.876657,203.500659 778.809511,202.315671 776.6765,201.473 C774.543489,200.630329 772.529009,200.209 770.633,200.209 C768.57899,200.209 767.051672,200.485497 766.051,201.0385 C765.050328,201.591503 764.55,202.789657 764.55,204.633 C764.55,205.581005 764.747498,206.39733 765.1425,207.082 C765.537502,207.76667 766.103663,208.372331 766.841,208.899 C767.578337,209.425669 768.460495,209.886498 769.4875,210.2815 C770.514505,210.676502 771.633661,211.084665 772.845,211.506 C774.635676,212.085336 776.452657,212.743663 778.296,213.481 C780.139343,214.218337 781.811492,215.166328 783.3125,216.325 C784.813508,217.483672 786.037995,218.958324 786.986,220.749 C787.934005,222.539676 788.408,224.80432 788.408,227.543 C788.408,230.229013 787.894505,232.533157 786.8675,234.4555 C785.840495,236.377843 784.484342,237.957827 782.799,239.1955 C781.113658,240.433173 779.191344,241.35483 777.032,241.9605 C774.872656,242.56617 772.634345,242.869 770.317,242.869 C766.946316,242.869 763.615183,242.210673 760.3235,240.894 C757.031817,239.577327 754.174679,237.62868 751.752,235.048 L755.544,226.042 C757.703344,228.306678 760.139153,230.070994 762.8515,231.335 C765.563847,232.599006 768.157654,233.231 770.633,233.231 C772.845011,233.231 774.543494,232.915003 775.7285,232.283 C776.913506,231.650997 777.532333,230.360676 777.585,228.412 C777.585,227.305994 777.374335,226.358004 776.953,225.568 C776.531665,224.777996 775.926004,224.093336 775.136,223.514 C774.345996,222.934664 773.424339,222.434335 772.371,222.013 C771.317661,221.591665 770.159006,221.170335 768.895,220.749 C767.104324,220.169664 765.313676,219.524504 763.523,218.8135 C761.732324,218.102496 760.126007,217.167672 758.704,216.009 C757.281993,214.850328 756.136504,213.415175 755.2675,211.7035 C754.398496,209.991825 753.964,207.819346 753.964,205.186 C753.964,202.552653 754.437995,200.301176 755.386,198.4315 C756.334005,196.561824 757.597992,195.034506 759.178,193.8495 C760.758008,192.664494 762.57499,191.795503 764.629,191.2425 C766.68301,190.689497 768.815989,190.413 771.028,190.413 C773.872014,190.413 776.650153,190.886995 779.3625,191.835 C782.074847,192.783005 784.536989,194.073325 786.749,195.706 L782.878,205.028 Z M814.241,234.653 C815.768341,234.653 817.190327,234.521335 818.507,234.258 L820.403,233.784 L820.482,242 C819.533995,242.158001 818.533339,242.315999 817.48,242.474 C816.584662,242.579334 815.531339,242.6715 814.32,242.7505 C813.108661,242.8295 811.81834,242.869 810.449,242.869 C808.447657,242.658332 806.683341,242.052672 805.156,241.052 C803.839327,240.156662 802.641172,238.826842 801.5615,237.0625 C800.481828,235.298158 799.942,232.809683 799.942,229.597 L799.942,213.007 L792.2,213.007 L792.2,205.265 L799.942,205.265 L799.942,193.889 L810.449,191.519 L810.449,205.265 L820.008,205.265 L820.008,213.007 L810.607,213.007 L810.607,229.044 C810.607,229.72867 810.699166,230.400163 810.8835,231.0585 C811.067834,231.716837 811.331165,232.309331 811.6735,232.836 C812.015835,233.362669 812.410831,233.797165 812.8585,234.1395 C813.306169,234.481835 813.766998,234.653 814.241,234.653 Z M847.263,200.367 C849.369677,200.367 851.660654,200.682997 854.136,201.315 C856.611346,201.947003 858.928656,203.052992 861.088,204.633 C863.247344,206.213008 865.051159,208.37232 866.4995,211.111 C867.947841,213.84968 868.672,217.351979 868.672,221.618 C868.672,225.884021 867.947841,229.38632 866.4995,232.125 C865.051159,234.86368 863.247344,237.022992 861.088,238.603 C858.928656,240.183008 856.611346,241.288997 854.136,241.921 C851.660654,242.553003 849.369677,242.869 847.263,242.869 C845.156323,242.869 842.865346,242.553003 840.39,241.921 C837.914654,241.288997 835.610511,240.183008 833.4775,238.603 C831.344489,237.022992 829.567007,234.86368 828.145,232.125 C826.722993,229.38632 826.012,225.884021 826.012,221.618 C826.012,217.351979 826.722993,213.84968 828.145,211.111 C829.567007,208.37232 831.344489,206.213008 833.4775,204.633 C835.610511,203.052992 837.914654,201.947003 840.39,201.315 C842.865346,200.682997 845.156323,200.367 847.263,200.367 Z M847.263,234.969 C850.212348,234.969 852.67449,233.810345 854.6495,231.493 C856.62451,229.175655 857.612,225.884021 857.612,221.618 C857.612,217.351979 856.62451,214.073511 854.6495,211.7825 C852.67449,209.491489 850.212348,208.346 847.263,208.346 C844.418986,208.346 842.022676,209.491489 840.074,211.7825 C838.125324,214.073511 837.151,217.351979 837.151,221.618 C837.151,223.724677 837.414331,225.607492 837.941,227.2665 C838.467669,228.925508 839.178662,230.321161 840.074,231.4535 C840.969338,232.585839 842.035827,233.45483 843.2735,234.0605 C844.511173,234.66617 845.840993,234.969 847.263,234.969 Z M902.01,211.506 C900.798661,211.242665 899.705838,211.097833 898.7315,211.0715 C897.757162,211.045167 896.848671,211.058333 896.006,211.111 C894.320658,211.216334 892.938172,211.584997 891.8585,212.217 C890.778828,212.849003 889.949336,213.678495 889.37,214.7055 C888.790664,215.732505 888.395668,216.89116 888.185,218.1815 C887.974332,219.47184 887.869,220.80166 887.869,222.171 L887.869,242 L877.204,242 L877.204,201.71 L885.025,201.71 L886.684,210.558 L886.8815,209.6495 C887.013167,209.04383 887.276498,208.306504 887.6715,207.4375 C888.066502,206.568496 888.632663,205.646838 889.37,204.6725 C890.107337,203.698162 891.042161,202.842337 892.1745,202.105 C893.306839,201.367663 894.676159,200.841002 896.2825,200.525 C897.888841,200.208998 899.797989,200.261665 902.01,200.683 L902.01,211.506 Z M946.25,201.315 L930.924,240.973 C930.871333,241.078334 930.687002,241.539163 930.371,242.3555 C930.054998,243.171837 929.55467,244.159328 928.87,245.318 C928.18533,246.476672 927.316339,247.70116 926.263,248.9915 C925.209661,250.28184 923.932508,251.479994 922.4315,252.586 C920.930492,253.692006 919.19251,254.613663 917.2175,255.351 C915.24249,256.088337 913.017346,256.457 910.542,256.457 L910.542,247.372 C912.069341,247.372 913.385994,247.042837 914.492,246.3845 C915.598006,245.726163 916.519663,245.002004 917.257,244.212 C918.099671,243.263995 918.810664,242.184339 919.39,240.973 L903.985,201.315 L915.677,201.315 L925.631,230.94 L934.637,201.315 L946.25,201.315 Z" id="ThreadStory"></path>
        </g>
    </g>
</svg>