<?xml version="1.0" encoding="UTF-8"?>
<svg width="74px" height="75px" viewBox="0 0 74 75" version="1.1" xmlns="http://www.w3.org/2000/svg" xmlns:xlink="http://www.w3.org/1999/xlink">
    <!-- Generator: Sketch 46.2 (44496) - http://www.bohemiancoding.com/sketch -->
    <title>Group 3</title>
    <desc>Created with Sketch.</desc>
    <defs></defs>
    <g id="Page-1" stroke="none" stroke-width="1" fill="none" fill-rule="evenodd">
        <g id="Artboard" transform="translate(-676.000000, -92.000000)" fill-rule="nonzero">
            <g id="Group-3" transform="translate(676.000000, 92.000000)">
                <rect id="Rectangle" fill="#FFFFFF" x="0" y="0" width="74" height="75" rx="8"></rect>
                <g id="Group-2" transform="translate(7.000000, 10.000000)">
                    <polygon id="Combined-Shape" fill="#6164E4" points="59.904 0 30.2769231 0 30.2769231 8.9807074 56.124718 8.9807074"></polygon>
                    <g id="Group">
                        <polygon id="T" fill="#6164E4" points="41.9815385 0.0274919614 41.9815385 9.01736334 26.8615385 9.01736334 26.8615385 53.8842444 15.3138462 53.8842444 15.3138462 9.01736334 0.110769231 9.01736334 0.110769231 0.0274919614"></polygon>
                        <path d="M26.7692308,53.8276921 C27.4151282,54.1473226 28.0781742,54.4421926 28.7583692,54.7123023 C32.3199255,56.126618 35.9241665,56.8337653 39.5712,56.8337653 C42.0785356,56.8337653 44.5003575,56.5084775 46.8367385,55.8578923 C49.1731194,55.2073071 51.253037,54.2173009 53.0765538,52.8878441 C54.9000707,51.5583872 56.3674098,49.8612339 57.4786154,47.7963328 C58.5898209,45.7314317 59.1454154,43.2564164 59.1454154,40.3712122 C59.1454154,37.4294354 58.632559,34.9968488 57.6068308,33.0733794 C56.5811025,31.14991 55.2562235,29.5659002 53.6321538,28.3213023 C52.0080842,27.0767043 50.1988407,26.0584123 48.2043692,25.2663955 C46.2098978,24.4743787 44.2439481,23.7672314 42.3064615,23.1449325 C40.9958088,22.6923514 39.7848978,22.2539202 38.6736923,21.8296254 C37.5624868,21.4053306 36.608004,20.9103276 35.8102154,20.3446013 C35.0124268,19.778875 34.3998484,19.1282995 33.9724615,18.3928553 C33.5450747,17.6574111 33.3313846,16.7805485 33.3313846,15.7622412 C33.3313846,13.7821992 33.872733,12.495191 34.9554462,11.9011785 C36.0381593,11.3071659 37.6906966,11.010164 39.9131077,11.010164 C41.9645642,11.010164 44.1442038,11.4627383 46.4520923,12.3679003 C48.7599809,13.2730623 50.9966046,14.5459275 53.1620308,16.1865338 L57.3504,6.1732283 C54.9570342,4.41947667 52.2930301,3.03346815 49.3583077,2.01516077 C46.4235853,0.996853389 43.4176769,0.487707395 40.3404923,0.487707395 C37.9471265,0.487707395 35.6392726,0.784709286 33.4168615,1.37872186 C31.1944505,1.97273444 29.2285008,2.90616883 27.5189538,4.17905305 C25.8094069,5.45193728 24.4417898,7.09251898 23.4160615,9.10084727 C22.3903333,11.1091756 21.8774769,13.5276192 21.8774769,16.3562508 C21.8774769,19.1848822 22.3475954,21.5184683 23.2878462,23.3570788 C24.2280969,25.1956893 25.4674999,26.7372702 27.0060923,27.9818682 C28.5446847,29.2264661 30.282698,30.2306151 32.2201846,30.9943457 C34.1576712,31.7580762 36.0951288,32.4510805 38.0326154,33.0733794 C39.400253,33.5259605 40.653902,33.9785347 41.7936,34.4311158 C42.933298,34.8836969 43.9305188,35.4211288 44.7852923,36.0434277 C45.6400658,36.6657265 46.2953823,37.4011598 46.7512615,38.2497492 C47.2071408,39.0983386 47.4350769,40.1166308 47.4350769,41.3046559 C47.3780921,43.3978433 46.7085295,44.7838518 45.4263692,45.4627235 C44.1442089,46.1415951 42.3064735,46.4810257 39.9131077,46.4810257 C37.2348174,46.4810257 34.4283532,45.8021643 31.4936308,44.4444212 C29.8217252,43.6709177 28.2469302,42.7229939 26.7692308,41.6006397 L26.7692308,53.8276921 Z" id="Combined-Shape" fill="#787AF4"></path>
                    </g>
                </g>
            </g>
        </g>
    </g>
</svg>